<svg width="300" height="37" viewBox="0 0 300 37" fill="none" xmlns="http://www.w3.org/2000/svg">
<g clip-path="url(#clip0_728_871)">
<g clip-path="url(#clip1_728_871)">
<g clip-path="url(#clip2_728_871)">
<mask id="mask0_728_871" style="mask-type:luminance" maskUnits="userSpaceOnUse" x="21" y="0" width="257" height="16">
<path d="M21.9727 7.6272C21.9727 3.48506 25.3305 0.127197 29.4727 0.127197H270.355C274.497 0.127197 277.855 3.48506 277.855 7.6272C277.855 11.7693 274.497 15.1272 270.355 15.1272H29.4727C25.3305 15.1272 21.9727 11.7693 21.9727 7.6272Z" fill="white"/>
</mask>
<g mask="url(#mask0_728_871)">
<path d="M21.9727 7.62723C21.9727 2.99778 25.7256 -0.755127 30.355 -0.755127H269.473C274.102 -0.755127 277.855 2.99778 277.855 7.62723C277.855 3.9724 274.497 1.00958 270.355 1.00958H29.4727C25.3305 1.00958 21.9727 3.9724 21.9727 7.62723Z" fill="white"/>
</g>
<path d="M0 14.2449H44.1176V15.1272H0V14.2449Z" fill="white"/>
<mask id="mask1_728_871" style="mask-type:luminance" maskUnits="userSpaceOnUse" x="0" y="14" width="45" height="2">
<path d="M0 14.2449H44.1176V15.1272H0V14.2449Z" fill="white"/>
</mask>
<g mask="url(#mask1_728_871)">
<path d="M44.1176 14.2449H0V16.0096H44.1176V14.2449Z" fill="white"/>
</g>
<path d="M61.485 12.5065C61.4122 12.2784 61.3145 12.0742 61.1917 11.8936C61.0714 11.7106 60.9272 11.5552 60.7593 11.4274C60.5913 11.2971 60.3996 11.1981 60.184 11.1304C59.9709 11.0627 59.7366 11.0288 59.4809 11.0288C59.0472 11.0288 58.6562 11.1404 58.3078 11.3635C57.9593 11.5866 57.6836 11.9137 57.4806 12.3449C57.28 12.7735 57.1798 13.2987 57.1798 13.9203C57.1798 14.5445 57.2812 15.0721 57.4843 15.5032C57.6873 15.9344 57.9656 16.2615 58.319 16.4847C58.6724 16.7077 59.0748 16.8193 59.526 16.8193C59.9446 16.8193 60.3093 16.734 60.6202 16.5636C60.9335 16.3932 61.1754 16.1525 61.3458 15.8417C61.5188 15.5283 61.6053 15.1598 61.6053 14.7362L61.9061 14.7926H59.7027V13.8338H62.7295V14.7099C62.7295 15.3566 62.5917 15.9181 62.3159 16.3944C62.0427 16.8682 61.6642 17.2342 61.1804 17.4923C60.6991 17.7505 60.1477 17.8796 59.526 17.8796C58.8292 17.8796 58.2175 17.7192 57.6911 17.3984C57.1672 17.0774 56.7586 16.6225 56.4653 16.0334C56.172 15.4418 56.0254 14.74 56.0254 13.9278C56.0254 13.3137 56.1106 12.7622 56.2811 12.2734C56.4516 11.7846 56.691 11.3698 56.9992 11.0288C57.3101 10.6854 57.6748 10.4234 58.0934 10.243C58.5145 10.06 58.9745 9.96851 59.4734 9.96851C59.8895 9.96851 60.2767 10.0299 60.6352 10.1527C60.9961 10.2756 61.317 10.4498 61.5978 10.6754C61.881 10.901 62.1154 11.1692 62.3009 11.4801C62.4864 11.7884 62.6117 12.1305 62.6769 12.5065H61.485ZM72.6582 13.9241C72.6582 14.7463 72.5078 15.4531 72.207 16.0447C71.9062 16.6338 71.4938 17.0875 70.97 17.4059C70.4486 17.7217 69.8557 17.8796 69.1914 17.8796C68.5247 17.8796 67.9293 17.7217 67.4055 17.4059C66.8841 17.0875 66.473 16.6326 66.1722 16.0409C65.8714 15.4494 65.7209 14.7437 65.7209 13.9241C65.7209 13.1018 65.8714 12.3962 66.1722 11.8072C66.473 11.2156 66.8841 10.7619 67.4055 10.446C67.9293 10.1277 68.5247 9.96851 69.1914 9.96851C69.8557 9.96851 70.4486 10.1277 70.97 10.446C71.4938 10.7619 71.9062 11.2156 72.207 11.8072C72.5078 12.3962 72.6582 13.1018 72.6582 13.9241ZM71.5076 13.9241C71.5076 13.2974 71.4061 12.7697 71.2031 12.3411C71.0025 11.9099 70.7268 11.5841 70.3759 11.3635C70.0275 11.1404 69.6326 11.0288 69.1914 11.0288C68.7478 11.0288 68.3517 11.1404 68.0032 11.3635C67.6549 11.5841 67.3792 11.9099 67.176 12.3411C66.9756 12.7697 66.8752 13.2974 66.8752 13.9241C66.8752 14.5507 66.9756 15.0796 67.176 15.5108C67.3792 15.9395 67.6549 16.2653 68.0032 16.4884C68.3517 16.709 68.7478 16.8193 69.1914 16.8193C69.6326 16.8193 70.0275 16.709 70.3759 16.4884C70.7268 16.2653 71.0025 15.9395 71.2031 15.5108C71.4061 15.0796 71.5076 14.5507 71.5076 13.9241ZM82.9312 17.7743H80.4383V10.0738H83.0102C83.7647 10.0738 84.4126 10.2279 84.9541 10.5363C85.4955 10.8421 85.9104 11.282 86.1987 11.856C86.4894 12.4275 86.6348 13.1131 86.6348 13.9128C86.6348 14.7149 86.4882 15.4042 86.1949 15.9808C85.9042 16.5573 85.483 17.001 84.9315 17.3119C84.3801 17.6202 83.7133 17.7743 82.9312 17.7743ZM81.6001 16.7591H82.8673C83.4539 16.7591 83.9415 16.6488 84.33 16.4282C84.7185 16.2052 85.0093 15.883 85.2022 15.4619C85.3953 15.0382 85.4918 14.5219 85.4918 13.9128C85.4918 13.3087 85.3953 12.7961 85.2022 12.3749C85.0117 11.9538 84.7273 11.6342 84.3487 11.4161C83.9702 11.1981 83.5003 11.089 82.9387 11.089H81.6001V16.7591ZM96.5334 13.9241C96.5334 14.7463 96.3834 15.4531 96.0825 16.0447C95.7817 16.6338 95.3687 17.0875 94.8455 17.4059C94.324 17.7217 93.7311 17.8796 93.0667 17.8796C92.3996 17.8796 91.8049 17.7217 91.2808 17.4059C90.7593 17.0875 90.3481 16.6326 90.0472 16.0409C89.7464 15.4494 89.5964 14.7437 89.5964 13.9241C89.5964 13.1018 89.7464 12.3962 90.0472 11.8072C90.3481 11.2156 90.7593 10.7619 91.2808 10.446C91.8049 10.1277 92.3996 9.96851 93.0667 9.96851C93.7311 9.96851 94.324 10.1277 94.8455 10.446C95.3687 10.7619 95.7817 11.2156 96.0825 11.8072C96.3834 12.3962 96.5334 13.1018 96.5334 13.9241ZM95.3828 13.9241C95.3828 13.2974 95.2814 12.7697 95.0784 12.3411C94.8781 11.9099 94.602 11.5841 94.2508 11.3635C93.9022 11.1404 93.5078 11.0288 93.0667 11.0288C92.6228 11.0288 92.2267 11.1404 91.8781 11.3635C91.5305 11.5841 91.2543 11.9099 91.0514 12.3411C90.8511 12.7697 90.7505 13.2974 90.7505 13.9241C90.7505 14.5507 90.8511 15.0796 91.0514 15.5108C91.2543 15.9395 91.5305 16.2653 91.8781 16.4884C92.2267 16.709 92.6228 16.8193 93.0667 16.8193C93.5078 16.8193 93.9022 16.709 94.2508 16.4884C94.602 16.2653 94.8781 15.9395 95.0784 15.5108C95.2814 15.0796 95.3828 14.5507 95.3828 13.9241ZM101.161 17.7743L99.0261 10.0738H100.248L101.748 16.0372H101.82L103.38 10.0738H104.59L106.151 16.0409H106.223L107.719 10.0738H108.945L106.805 17.7743H105.636L104.015 12.0065H103.955L102.335 17.7743H101.161ZM117.984 10.0738V17.7743H116.917L113.002 12.1267H112.93V17.7743H111.769V10.0738H112.844L116.762 15.7289H116.834V10.0738H117.984ZM125.631 11.0739V10.0738H131.59V11.0739H129.188V17.7743H128.03V11.0739H125.631ZM134.672 17.7743V10.0738H135.833V13.4202H139.673V10.0738H140.838V17.7743H139.673V14.4166H135.833V17.7743H134.672ZM144.295 17.7743V10.0738H149.123V11.0739H145.457V13.4202H148.871V14.4166H145.457V16.7742H149.168V17.7743H144.295ZM157.006 17.7743V10.0738H159.751C160.348 10.0738 160.843 10.1766 161.236 10.3822C161.633 10.5877 161.928 10.8722 162.124 11.2357C162.32 11.5966 162.417 12.014 162.417 12.4877C162.417 12.959 162.318 13.3739 162.12 13.7323C161.925 14.0882 161.629 14.3653 161.233 14.5633C160.839 14.7613 160.344 14.8603 159.748 14.8603H157.668V13.8601H159.642C160.019 13.8601 160.324 13.8062 160.56 13.6985C160.798 13.5907 160.973 13.434 161.083 13.2284C161.193 13.0229 161.248 12.776 161.248 12.4877C161.248 12.197 161.191 11.9451 161.078 11.732C160.968 11.5189 160.794 11.356 160.556 11.2432C160.32 11.1278 160.011 11.0702 159.627 11.0702H158.168V17.7743H157.006ZM160.808 14.3001L162.711 17.7743H161.387L159.522 14.3001H160.808ZM166.246 17.7743H165.013L167.784 10.0738H169.126L171.898 17.7743H170.664L168.488 11.4726H168.427L166.246 17.7743ZM166.453 14.7588H170.453V15.7364H166.453V14.7588ZM174.774 17.7743V10.0738H177.594C178.14 10.0738 178.593 10.164 178.951 10.3445C179.31 10.5224 179.579 10.7644 179.756 11.0702C179.934 11.3735 180.023 11.7157 180.023 12.0967C180.023 12.4176 179.964 12.6883 179.847 12.9089C179.729 13.127 179.571 13.3024 179.373 13.4353C179.177 13.5656 178.962 13.6609 178.726 13.721V13.7962C178.981 13.8088 179.231 13.8914 179.475 14.0444C179.72 14.1948 179.923 14.4091 180.083 14.6873C180.244 14.9656 180.324 15.304 180.324 15.7026C180.324 16.0961 180.232 16.4496 180.045 16.7629C179.863 17.0737 179.58 17.3206 179.196 17.5036C178.813 17.6841 178.322 17.7743 177.726 17.7743H174.774ZM175.936 16.7779H177.613C178.17 16.7779 178.568 16.6702 178.808 16.4546C179.049 16.2389 179.169 15.9695 179.169 15.6462C179.169 15.403 179.108 15.1799 178.986 14.9768C178.862 14.7738 178.688 14.6122 178.459 14.4918C178.233 14.3715 177.965 14.3114 177.654 14.3114H175.936V16.7779ZM175.936 13.4052H177.493C177.753 13.4052 177.988 13.3551 178.196 13.2547C178.406 13.1545 178.573 13.0141 178.696 12.8337C178.822 12.6507 178.884 12.4351 178.884 12.1869C178.884 11.8686 178.772 11.6017 178.549 11.386C178.327 11.1704 177.984 11.0627 177.523 11.0627H175.936V13.4052ZM183.467 17.7743V10.0738H186.287C186.833 10.0738 187.286 10.164 187.644 10.3445C188.003 10.5224 188.271 10.7644 188.449 11.0702C188.627 11.3735 188.715 11.7157 188.715 12.0967C188.715 12.4176 188.657 12.6883 188.539 12.9089C188.422 13.127 188.264 13.3024 188.065 13.4353C187.87 13.5656 187.654 13.6609 187.418 13.721V13.7962C187.674 13.8088 187.924 13.8914 188.167 14.0444C188.413 14.1948 188.616 14.4091 188.776 14.6873C188.936 14.9656 189.016 15.304 189.016 15.7026C189.016 16.0961 188.924 16.4496 188.738 16.7629C188.556 17.0737 188.273 17.3206 187.889 17.5036C187.505 17.6841 187.015 17.7743 186.419 17.7743H183.467ZM184.628 16.7779H186.306C186.863 16.7779 187.26 16.6702 187.501 16.4546C187.742 16.2389 187.862 15.9695 187.862 15.6462C187.862 15.403 187.8 15.1799 187.678 14.9768C187.555 14.7738 187.38 14.6122 187.152 14.4918C186.926 14.3715 186.658 14.3114 186.347 14.3114H184.628V16.7779ZM184.628 13.4052H186.185C186.446 13.4052 186.681 13.3551 186.888 13.2547C187.099 13.1545 187.266 13.0141 187.388 12.8337C187.514 12.6507 187.576 12.4351 187.576 12.1869C187.576 11.8686 187.465 11.6017 187.242 11.386C187.019 11.1704 186.676 11.0627 186.216 11.0627H184.628V13.4052ZM193.321 10.0738V17.7743H192.159V10.0738H193.321ZM196.398 11.0739V10.0738H202.358V11.0739H199.955V17.7743H198.797V11.0739H196.398ZM210.007 17.7743V10.0738H211.168V13.4202H215.007V10.0738H216.173V17.7743H215.007V14.4166H211.168V17.7743H210.007ZM226.319 13.9241C226.319 14.7463 226.168 15.4531 225.867 16.0447C225.567 16.6338 225.154 17.0875 224.63 17.4059C224.109 17.7217 223.516 17.8796 222.852 17.8796C222.185 17.8796 221.589 17.7217 221.066 17.4059C220.545 17.0875 220.133 16.6326 219.833 16.0409C219.532 15.4494 219.382 14.7437 219.382 13.9241C219.382 13.1018 219.532 12.3962 219.833 11.8072C220.133 11.2156 220.545 10.7619 221.066 10.446C221.589 10.1277 222.185 9.96851 222.852 9.96851C223.516 9.96851 224.109 10.1277 224.63 10.446C225.154 10.7619 225.567 11.2156 225.867 11.8072C226.168 12.3962 226.319 13.1018 226.319 13.9241ZM225.168 13.9241C225.168 13.2974 225.067 12.7697 224.864 12.3411C224.663 11.9099 224.387 11.5841 224.036 11.3635C223.688 11.1404 223.293 11.0288 222.852 11.0288C222.408 11.0288 222.012 11.1404 221.663 11.3635C221.315 11.5841 221.04 11.9099 220.837 12.3411C220.636 12.7697 220.536 13.2974 220.536 13.9241C220.536 14.5507 220.636 15.0796 220.837 15.5108C221.04 15.9395 221.315 16.2653 221.663 16.4884C222.012 16.709 222.408 16.8193 222.852 16.8193C223.293 16.8193 223.688 16.709 224.036 16.4884C224.387 16.2653 224.663 15.9395 224.864 15.5108C225.067 15.0796 225.168 14.5507 225.168 13.9241ZM229.532 17.7743V10.0738H230.693V16.7742H234.183V17.7743H229.532ZM237.273 17.7743V10.0738H242.101V11.0739H238.435V13.4202H241.849V14.4166H238.435V16.7742H242.146V17.7743H237.273Z" fill="white"/>
<path d="M255.883 14.2449H300V15.1272H255.883V14.2449Z" fill="white"/>
<mask id="mask2_728_871" style="mask-type:luminance" maskUnits="userSpaceOnUse" x="255" y="14" width="45" height="2">
<path d="M255.883 14.2449H300V15.1272H255.883V14.2449Z" fill="white"/>
</mask>
<g mask="url(#mask2_728_871)">
<path d="M300 14.2449H255.883V16.0096H300V14.2449Z" fill="white"/>
</g>
<mask id="mask3_728_871" style="mask-type:luminance" maskUnits="userSpaceOnUse" x="21" y="13" width="257" height="16">
<path d="M21.9727 20.8625C21.9727 16.7204 25.3305 13.3625 29.4727 13.3625H270.355C274.497 13.3625 277.855 16.7204 277.855 20.8625C277.855 25.0047 274.497 28.3625 270.355 28.3625H29.4727C25.3305 28.3625 21.9727 25.0047 21.9727 20.8625Z" fill="white"/>
</mask>
<g mask="url(#mask3_728_871)">
<path d="M277.855 20.8625C277.855 25.492 274.102 29.2449 269.473 29.2449H30.355C25.7256 29.2449 21.9727 25.492 21.9727 20.8625C21.9727 24.5173 25.3305 27.4802 29.4727 27.4802H270.355C274.497 27.4802 277.855 24.5173 277.855 20.8625Z" fill="white"/>
</g>
</g>
</g>
</g>
<defs>
<clipPath id="clip0_728_871">
<rect width="300" height="28.23" fill="white" transform="translate(0 0.129883)"/>
</clipPath>
<clipPath id="clip1_728_871">
<rect width="300" height="28.23" fill="white" transform="translate(0 0.129883)"/>
</clipPath>
<clipPath id="clip2_728_871">
<rect width="300" height="28.2353" fill="white" transform="translate(0 0.127197)"/>
</clipPath>
</defs>
</svg>
