<svg width="660" height="304" viewBox="0 0 660 304" fill="none" xmlns="http://www.w3.org/2000/svg">
<path fill-rule="evenodd" clip-rule="evenodd" d="M249.998 2.52582L271.214 23.8768C274.561 27.2446 274.561 32.7044 271.214 36.0722L249.955 57.4742C246.608 60.8419 241.183 60.8419 237.836 57.4742L216.613 36.1232C213.266 32.7554 213.266 27.2956 216.613 23.9278L237.88 2.52582C241.226 -0.841939 246.652 -0.841939 249.998 2.52582ZM242.501 7.94193L242.414 8.02211L222.082 28.4838C221.27 29.3002 221.249 30.5977 222.002 31.4506L222.082 31.5381L242.385 51.9706C243.196 52.787 244.486 52.8089 245.326 52.0508L245.413 51.9706L265.745 31.5089C266.578 30.6706 266.578 29.3075 265.745 28.4619L245.442 8.0294C244.631 7.21298 243.341 7.19111 242.501 7.94922V7.94193ZM244.305 16.9445L256.879 29.6064C257.089 29.8178 257.089 30.1531 256.879 30.3718L244.283 43.0482C244.073 43.2596 243.732 43.2596 243.522 43.0482L230.948 30.3863C230.738 30.175 230.738 29.8396 230.948 29.6209L243.544 16.9445C243.754 16.7331 244.095 16.7331 244.305 16.9445Z" fill="white"/>
<path d="M301.25 7.427L284.243 52.6147H292.182L295.999 42.2928H315.382L319.258 52.6147H327.327L310.319 7.427H301.25ZM305.625 16.3639L312.753 35.2438H298.621L305.625 16.3639Z" fill="white"/>
<path d="M356.912 46.1968H339.593L356.731 25.305V19.5828H330.401V26.0048H347.785L330.147 46.9549V52.6188H356.912V46.1968Z" fill="white"/>
<path d="M364.415 44.3183C364.415 51.0465 367.79 53.0001 374.048 53.0001C375.99 53.0001 377.866 52.8106 379.242 52.5627V46.2063C378.119 46.3302 377.431 46.3958 376.178 46.3958C373.491 46.3958 371.803 46.0823 371.803 43.1228V26.007H378.684V19.585H371.803V9.88989H364.422V19.585H359.858V26.007H364.422V44.3183H364.415Z" fill="white"/>
<path d="M398.119 53.3125C404.688 53.3125 409.875 49.85 412.193 44.0548L405.753 41.5982C404.754 44.9952 401.813 46.8904 398.126 46.8904C393.309 46.8904 389.934 43.4279 389.369 37.7639H412.381V35.2491C412.381 26.1882 407.318 18.9497 397.807 18.9497C388.297 18.9497 382.176 26.436 382.176 36.1311C382.176 46.3218 388.746 53.3125 398.126 53.3125H398.119ZM397.742 25.3062C402.494 25.3062 404.746 28.4479 404.812 32.1073H389.738C390.861 27.6388 393.867 25.3062 397.742 25.3062Z" fill="white"/>
<path d="M423.449 36.1311C423.449 29.3956 426.955 25.4301 432.076 25.4301C436.082 25.4301 438.515 28.1418 439.457 31.7282L445.773 28.2657C444.021 22.9735 439.146 18.9497 432.076 18.9497C422.696 18.9497 415.945 25.9331 415.945 36.1311C415.945 46.3291 422.696 53.3125 432.076 53.3125C439.204 53.3125 444.209 49.0919 445.897 43.7414L439.457 40.4684C438.523 44.1204 436.082 46.7665 432.076 46.7665C426.948 46.7665 423.449 42.8593 423.449 36.1238V36.1311Z" fill="white"/>
<path d="M113.972 208.2H81.7724L65.2523 302H56.0123L91.0124 103.76H100.252L83.4524 199.24H115.372L132.172 103.76H141.412L106.692 302H97.4524L113.972 208.2ZM164.834 262.8H137.114L126.194 302H116.674L174.074 103.76H183.314L171.554 302H162.314L164.834 262.8ZM139.634 254.4H165.394L172.394 152.48L177.994 109.08L168.194 152.48L139.634 254.4ZM190.211 302H181.531L216.531 103.76L224.091 103.76L234.731 243.2L235.851 285.76L242.291 232.84L265.251 103.76H273.931L238.931 302H231.371L220.731 160.04L219.611 117.76L213.171 171.24L190.211 302ZM292.142 103.76L311.182 103.76C329.942 103.76 341.422 115.52 337.222 138.76L313.982 269.24C310.342 292.2 297.462 302 276.182 302L257.142 302L292.142 103.76ZM299.702 112.16L268.062 293.32H275.622C292.982 293.32 301.662 286.32 305.022 267.84L327.982 138.2C331.062 119.44 323.502 112.16 309.222 112.16L299.702 112.16ZM325.364 302L360.084 103.76H380.524C402.924 103.76 408.244 116.08 405.164 132.88L398.164 172.36C395.644 188.04 389.484 195.88 375.484 198.4C389.484 202.04 392.004 213.24 388.924 228.92L380.804 275.12C377.444 293.88 369.604 302 346.084 302H325.364ZM367.644 111.6L353.084 194.48H361.764C379.404 194.48 385.844 188.88 388.924 172.36L395.924 132.6C398.164 119.44 395.364 111.6 378.844 111.6H367.644ZM351.684 202.6L335.724 293.6H346.644C364.284 293.6 369.324 286.6 371.844 272.6L379.684 227.52C382.764 212.12 379.404 202.6 360.364 202.6H351.684ZM418.864 303.96C399.264 303.96 391.984 290.8 395.624 272.04L420.264 132.6C424.464 110.48 433.704 102.08 449.104 102.08C466.464 102.08 476.264 113.28 472.904 133.16L447.704 275.4C444.344 293.88 436.504 303.96 418.864 303.96ZM419.424 295.28C431.464 295.28 435.944 288.28 438.464 274.28L463.664 132.32C466.184 118.32 461.144 110.2 448.264 110.2C438.184 110.2 432.024 116.92 429.784 131.2L404.584 272.88C402.344 286.88 406.264 295.28 419.424 295.28ZM487.639 303.96C468.039 303.96 460.759 290.8 464.399 272.04L489.039 132.6C493.239 110.48 502.479 102.08 517.879 102.08C535.239 102.08 545.039 113.28 541.679 133.16L516.479 275.4C513.119 293.88 505.279 303.96 487.639 303.96ZM488.199 295.28C500.239 295.28 504.719 288.28 507.239 274.28L532.439 132.32C534.959 118.32 529.919 110.2 517.039 110.2C506.959 110.2 500.799 116.92 498.559 131.2L473.359 272.88C471.119 286.88 475.039 295.28 488.199 295.28ZM573.201 183.28L551.081 227.24L538.201 302H528.961L563.961 103.76H572.921L557.241 192.8L550.801 218.84L559.201 198.68L607.921 103.76H616.881L579.641 176.84L584.681 302H575.441L572.361 202.32L573.201 183.28Z" fill="white"/>
</svg>
